HIERARCHY
ROOT Hips
{
	OFFSET 0.000000 0.000000 0.000000
	CHANNELS 6 Xposition Yposition Zposition Xrotation Yrotation Zrotation
	JOINT LeftUpLeg_virtual
	{
		OFFSET 0.000000 0.000000 0.000000
		CHANNELS 3 Xrotation Yrotation Zrotation
		JOINT LeftUpLeg
		{
			OFFSET 11.394100 -6.187798 -0.413800
			CHANNELS 3 Xrotation Yrotation Zrotation
			JOINT LeftLeg
			{
				OFFSET 0.430247 -32.302673 3.732800
				CHANNELS 3 Xrotation Yrotation Zrotation
				JOINT LeftFoot
				{
					OFFSET -0.430247 -48.264931 -6.423300
					CHANNELS 3 Xrotation Yrotation Zrotation
					JOINT LeftToeBase
					{
						OFFSET 4.230900 -16.068199 23.438400
						CHANNELS 3 Xrotation Yrotation Zrotation
						JOINT LeftToe_End
						{
							OFFSET 4.510700 0.695400 19.974600
							CHANNELS 3 Xrotation Yrotation Zrotation
							End Site
							{
								OFFSET 0 0 0
							}
						}
					}
				}
			}
		}
	}
	JOINT RightUpLeg_virtual
	{
		OFFSET 0.000000 0.000000 0.000000
		CHANNELS 3 Xrotation Yrotation Zrotation
		JOINT RightUpLeg
		{
			OFFSET -11.333700 -6.187798 -0.413800
			CHANNELS 3 Xrotation Yrotation Zrotation
			JOINT RightLeg
			{
				OFFSET -0.430392 -32.302628 3.733000
				CHANNELS 3 Xrotation Yrotation Zrotation
				JOINT RightFoot
				{
					OFFSET 0.430392 -48.264973 -6.423500
					CHANNELS 3 Xrotation Yrotation Zrotation
					JOINT RightToeBase
					{
						OFFSET -4.230900 -16.068199 23.438400
						CHANNELS 3 Xrotation Yrotation Zrotation
						JOINT RightToe_End
						{
							OFFSET -4.510700 0.695400 19.974600
							CHANNELS 3 Xrotation Yrotation Zrotation
							End Site
							{
								OFFSET 0 0 0
							}
						}
					}
				}
			}
		}
	}
	JOINT Spine_virtual
	{
		OFFSET 0.000000 0.000000 0.000000
		CHANNELS 3 Xrotation Yrotation Zrotation
		JOINT Spine
		{
			OFFSET -0.002400 12.777504 0.315300
			CHANNELS 3 Xrotation Yrotation Zrotation
			JOINT Spine1
			{
				OFFSET -0.002067 5.816869 0.032633
				CHANNELS 3 Xrotation Yrotation Zrotation
				JOINT Spine1_split
				{
					OFFSET -0.002067 5.816869 0.032633
					CHANNELS 3 Xrotation Yrotation Zrotation
					JOINT Spine2
					{
						OFFSET -0.002067 5.816869 0.032633
						CHANNELS 3 Xrotation Yrotation Zrotation
						JOINT Neck_virtual
						{
							OFFSET 0.000000 0.000000 0.000000
							CHANNELS 3 Xrotation Yrotation Zrotation
							JOINT Neck
							{
								OFFSET -0.003700 21.199493 -0.826900
								CHANNELS 3 Xrotation Yrotation Zrotation
								JOINT Head
								{
									OFFSET 0.000000 20.442200 4.834800
									CHANNELS 3 Xrotation Yrotation Zrotation
									JOINT HeadTop_End
									{
										OFFSET 0.000000 34.668396 4.968400
										CHANNELS 3 Xrotation Yrotation Zrotation
										End Site
										{
											OFFSET 0 0 0
										}
									}
								}
							}
						}
						JOINT LeftShoulder_virtual
						{
							OFFSET 0.000000 0.000000 0.000000
							CHANNELS 3 Xrotation Yrotation Zrotation
							JOINT LeftShoulder
							{
								OFFSET 3.288150 8.794197 -1.372250
								CHANNELS 3 Xrotation Yrotation Zrotation
								JOINT LeftShoulder_split
								{
									OFFSET 3.288150 8.794197 -1.372250
									CHANNELS 3 Xrotation Yrotation Zrotation
									JOINT LeftArm
									{
										OFFSET 11.953299 -2.279007 -0.146200
										CHANNELS 3 Xrotation Yrotation Zrotation
										JOINT LeftForeArm
										{
											OFFSET 18.448900 0.000000 0.000000
											CHANNELS 3 Xrotation Yrotation Zrotation
											JOINT LeftHand
											{
												OFFSET 29.527798 0.000000 0.000000
												CHANNELS 3 Xrotation Yrotation Zrotation
												End Site
												{
													OFFSET 0 0 0
												}
											}
										}
									}
								}
							}
						}
						JOINT RightShoulder_virtual
						{
							OFFSET 0.000000 0.000000 0.000000
							CHANNELS 3 Xrotation Yrotation Zrotation
							JOINT RightShoulder
							{
								OFFSET -3.249400 8.794197 -1.372250
								CHANNELS 3 Xrotation Yrotation Zrotation
								JOINT RightShoulder_split
								{
									OFFSET -3.249400 8.794197 -1.372250
									CHANNELS 3 Xrotation Yrotation Zrotation
									JOINT RightArm
									{
										OFFSET -11.953299 -2.279007 -0.146200
										CHANNELS 3 Xrotation Yrotation Zrotation
										JOINT RightForeArm
										{
											OFFSET -18.448900 0.000000 0.000000
											CHANNELS 3 Xrotation Yrotation Zrotation
											JOINT RightHand
											{
												OFFSET -29.527802 0.000000 0.000000
												CHANNELS 3 Xrotation Yrotation Zrotation
												End Site
												{
													OFFSET 0 0 0
												}
											}
										}
									}
								}
							}
						}
					}
				}
			}
		}
	}
}
MOTION
Frames: 9
Frame Time: 0.03333333
5.460085 79.229027 -10.627901 0.000000 0.000000 0.000000 -8.397714 5.006386 1.329939 -41.557668 -5.250178 13.282015 69.183526 -2.836677 2.201747 -15.759359 -1.144012 -14.221005 -4.165526 -4.906198 -0.260275 0.000000 0.000000 0.000000 -7.924733 4.531798 1.081878 -33.493537 -8.114492 -12.614495 68.657458 5.275274 -5.634297 -26.458628 -17.793217 18.867730 4.198768 8.186420 -23.729781 0.000000 0.000000 0.000000 -8.908346 6.524844 0.987855 15.613782 2.640217 2.571982 11.660138 -3.035985 2.725603 0.151862 -0.422873 0.052137 0.000000 0.000000 0.000000 13.375598 -0.900825 1.888427 10.836461 4.213387 2.186977 22.425695 -3.570329 -19.043291 0.000000 0.000000 0.000000 13.283407 -2.614654 1.156402 2.097039 -16.453186 -9.036509 9.174310 -3.456446 -4.324427 -32.764534 -13.926999 -47.749808 -45.084378 -69.346733 -52.309899 0.000000 0.000000 0.000000 13.953008 -1.950377 2.226303 3.187209 -2.552087 22.442601 9.292117 4.690148 5.905866 -37.329723 39.040586 55.062772 -60.141844 72.625688 54.982797 0.000000 0.000000 0.000000 
5.371198 79.922852 -10.267488 0.000000 0.000000 0.000000 -8.874674 4.900564 1.437300 -39.439667 -4.768456 13.068069 68.008030 -2.669147 2.337625 -16.291142 -0.786148 -14.187988 -3.741313 -4.963729 -0.327351 0.000000 0.000000 0.000000 -8.353239 4.320771 1.192518 -32.087583 -8.563029 -12.424389 67.622247 5.258490 -5.601490 -26.354577 -17.425206 18.500515 4.014041 8.154149 -23.586081 0.000000 0.000000 0.000000 -9.259065 6.278249 1.189428 16.126664 2.700941 3.130304 10.661761 -3.392825 2.322147 0.082119 -0.490229 0.022411 0.000000 0.000000 0.000000 12.394265 -1.270435 1.541695 10.227856 4.642092 0.617834 21.973420 -2.948050 -17.802671 0.000000 0.000000 0.000000 12.653888 -2.920878 0.960760 1.737791 -15.092324 -9.895718 9.315400 -3.817005 -4.623041 -31.005415 -15.794671 -48.554859 -35.888283 -69.285958 -42.719319 0.000000 0.000000 0.000000 13.155113 -2.344045 1.766710 3.369811 -1.963894 22.414652 9.901175 3.463548 5.629572 -34.815151 39.229649 54.851381 -52.836400 74.297678 47.540374 0.000000 0.000000 0.000000 
5.214226 80.808037 -9.778936 0.000000 0.000000 0.000000 -9.327241 4.747889 1.590062 -37.157865 -4.290602 12.780285 66.377855 -2.517244 2.516806 -16.673339 -0.348427 -14.162256 -2.913946 -5.005505 -0.310405 0.000000 0.000000 0.000000 -8.790052 4.190502 1.371370 -30.413487 -9.184730 -12.250153 66.256790 5.246930 -5.532053 -26.131933 -17.058179 18.066617 3.701342 8.173411 -23.422346 0.000000 0.000000 0.000000 -9.692317 6.158555 1.412222 16.656888 2.736057 3.565966 9.823623 -3.661876 1.971350 0.002218 -0.514842 0.048368 0.000000 0.000000 0.000000 11.577309 -1.560939 1.212074 9.641699 5.104060 -0.933743 20.243810 -2.442723 -16.486041 0.000000 0.000000 0.000000 12.064529 -3.169285 0.824865 1.425281 -14.497418 -10.795649 8.772342 -3.899853 -4.749445 -28.027891 -17.754544 -48.745213 -27.172243 -68.588083 -33.135150 0.000000 0.000000 0.000000 12.320575 -2.700970 1.383619 3.403532 -1.346721 22.396586 9.882100 2.296173 5.543659 -30.728468 39.457634 53.035183 -52.465880 77.731432 47.391722 0.000000 0.000000 0.000000 
4.982193 81.768166 -9.272257 0.000000 0.000000 0.000000 -9.681665 4.541012 1.729126 -34.974513 -3.943805 12.465778 64.553183 -2.444976 2.750558 -16.799170 0.027455 -14.171607 -1.989753 -5.051759 -0.179690 0.000000 0.000000 0.000000 -9.209562 4.161764 1.572877 -28.707063 -9.850554 -12.089826 64.716555 5.245612 -5.412250 -25.767611 -16.695383 17.630293 3.323700 8.240709 -23.323472 0.000000 0.000000 0.000000 -10.044425 6.162382 1.540680 17.152424 2.761792 3.869478 9.188470 -3.825137 1.716887 0.037886 -0.535341 0.110379 0.000000 0.000000 0.000000 11.008364 -1.757582 1.006077 8.990396 5.587240 -2.403277 17.530046 -2.053236 -15.328099 0.000000 0.000000 0.000000 11.498600 -3.332625 0.788744 1.229513 -14.474983 -11.557160 7.704010 -3.809246 -4.968397 -24.903860 -18.920476 -48.296346 -20.608342 -68.107163 -25.244051 0.000000 0.000000 0.000000 11.513289 -2.987872 1.150676 3.318124 -0.841088 22.287983 9.135265 1.519028 5.879798 -25.748975 38.816679 50.596723 -61.284207 81.779993 56.643595 0.000000 0.000000 0.000000 
4.729791 82.695084 -8.782957 0.000000 0.000000 0.000000 -9.914562 4.351137 1.812792 -33.088756 -3.817602 12.156655 62.790674 -2.443843 3.017499 -16.718710 0.310827 -14.188306 -1.139888 -5.097424 -0.010587 0.000000 0.000000 0.000000 -9.536017 4.239987 1.719993 -27.109407 -10.407102 -11.937125 63.183942 5.242617 -5.229894 -25.357180 -16.360946 17.203833 3.083583 8.316040 -23.307351 0.000000 0.000000 0.000000 -10.244163 6.218822 1.552497 17.507078 2.771907 4.072756 8.736034 -3.890915 1.545043 0.107483 -0.531598 0.161433 0.000000 0.000000 0.000000 10.651598 -1.868002 0.959130 8.214769 6.068713 -3.661429 14.144722 -1.864606 -14.477397 0.000000 0.000000 0.000000 11.002543 -3.403769 0.803165 1.182607 -14.691759 -12.189438 6.137228 -3.726150 -5.306476 -22.063056 -18.532193 -47.884561 -15.886486 -68.727365 -18.863902 0.000000 0.000000 0.000000 10.852747 -3.184214 1.051045 3.154510 -0.544722 22.098980 8.361858 1.517176 6.271045 -20.984201 36.736873 48.783445 -81.857584 84.752150 77.587841 0.000000 0.000000 0.000000 
4.499139 83.514435 -8.380892 0.000000 0.000000 0.000000 -10.034367 4.234450 1.804971 -31.618124 -3.904224 11.888308 61.249865 -2.527364 3.312473 -16.475121 0.506855 -14.293246 -0.533941 -5.130012 0.128720 0.000000 0.000000 0.000000 -9.781080 4.387011 1.777192 -25.707642 -10.775202 -11.765320 61.752410 5.218644 -4.999284 -25.040194 -16.085878 16.741207 3.155815 8.357192 -23.370414 0.000000 0.000000 0.000000 -10.288182 6.264416 1.460783 17.648930 2.767179 4.181230 8.439163 -3.888876 1.407120 0.213828 -0.480058 0.173262 0.000000 0.000000 0.000000 10.464282 -1.907366 1.008845 7.346634 6.504514 -4.571939 10.515218 -1.851390 -13.935727 0.000000 0.000000 0.000000 10.589134 -3.404399 0.792823 1.239382 -14.881777 -12.621776 4.666376 -3.722993 -5.550567 -19.828225 -16.460104 -48.267000 -10.989049 -70.552016 -12.258813 0.000000 0.000000 0.000000 10.379949 -3.271246 1.043516 3.004831 -0.472382 21.864035 7.846602 2.039300 6.347005 -17.807031 33.480057 48.647889 -99.994133 86.175308 95.899763 0.000000 0.000000 0.000000 
4.307988 84.181473 -8.077204 0.000000 0.000000 0.000000 -10.079815 4.224400 1.711548 -30.474842 -4.077658 11.679002 59.889517 -2.622017 3.572055 -16.180696 0.658929 -14.427357 -0.281768 -5.146440 0.241368 0.000000 0.000000 0.000000 -9.981843 4.492667 1.730386 -24.525544 -10.959477 -11.572781 60.506440 5.139875 -4.733425 -24.872994 -15.913714 16.209675 3.486776 8.359570 -23.472377 0.000000 0.000000 0.000000 -10.237345 6.358621 1.369125 17.566353 2.733168 4.184940 8.236007 -3.830242 1.251243 0.290318 -0.459015 0.140443 0.000000 0.000000 0.000000 10.363679 -1.908299 1.110494 6.441659 6.807469 -5.035136 6.996468 -2.077296 -13.564052 0.000000 0.000000 0.000000 10.252272 -3.350298 0.712082 1.380576 -14.783471 -12.736701 3.521786 -3.740818 -5.597861 -18.239470 -13.347314 -49.559265 -2.643924 -72.354714 -2.439498 0.000000 0.000000 0.000000 10.107497 -3.267181 1.070460 2.923393 -0.686466 21.443510 7.199331 2.957577 6.501407 -15.980925 29.722541 49.605451 -92.367025 87.153665 88.083165 0.000000 0.000000 0.000000 
4.192930 84.691895 -7.829363 0.000000 0.000000 0.000000 -10.082024 4.289511 1.582505 -29.640412 -4.206877 11.538985 58.694664 -2.685279 3.747590 -15.897595 0.826900 -14.548754 -0.205019 -5.133604 0.271631 0.000000 0.000000 0.000000 -10.116438 4.507685 1.636002 -23.510864 -11.003354 -11.368245 59.466393 5.007683 -4.460185 -24.814682 -15.855577 15.678242 3.861658 8.350502 -23.593101 0.000000 0.000000 0.000000 -10.179024 6.444272 1.331837 17.263856 2.669280 4.080722 8.086343 -3.739088 1.066199 0.275720 -0.447204 0.059848 0.000000 0.000000 0.000000 10.274629 -1.887962 1.184470 5.523187 6.936087 -5.003801 3.881728 -2.701348 -13.201346 0.000000 0.000000 0.000000 9.989575 -3.270629 0.542746 1.559544 -14.418342 -12.481578 2.640199 -3.876251 -5.227746 -16.917532 -10.099469 -51.621378 10.138288 -72.903998 11.444048 0.000000 0.000000 0.000000 9.998257 -3.200293 1.078287 2.927394 -1.163340 20.901769 6.769836 4.125801 6.452389 -15.151549 26.250246 50.986515 -63.625275 87.555437 58.867222 0.000000 0.000000 0.000000 
4.147456 85.073112 -7.623911 0.000000 0.000000 0.000000 -10.047610 4.305301 1.468258 -28.992548 -4.179814 11.471012 57.619100 -2.694996 3.822752 -15.684406 1.007317 -14.579619 -0.187840 -5.104399 0.268965 0.000000 0.000000 0.000000 -10.190939 4.407583 1.546848 -22.649817 -10.958233 -11.181930 58.599178 4.857999 -4.216356 -24.772567 -15.901864 15.284590 4.069651 8.348503 -23.719775 0.000000 0.000000 0.000000 -10.164048 6.551644 1.355545 16.842461 2.584323 3.847278 7.983134 -3.630690 0.870419 0.229405 -0.387450 -0.006437 0.000000 0.000000 0.000000 10.185549 -1.855889 1.174611 4.629857 6.880726 -4.558587 1.325545 -3.830743 -12.732088 0.000000 0.000000 0.000000 9.776267 -3.197040 0.302587 1.730550 -13.895832 -11.815878 2.145888 -4.054811 -4.441144 -15.962591 -7.454013 -53.899082 24.116735 -71.230103 26.087812 0.000000 0.000000 0.000000 9.964275 -3.089435 1.062572 3.013849 -1.804142 20.349411 6.361965 5.198901 6.401337 -14.588946 23.573257 52.212862 -41.189524 87.463099 35.853924 0.000000 0.000000 0.000000 
